STARTFONT 2.1
FONT screen.r.12
SIZE 12 80 80
FONTBOUNDINGBOX 7 10 0 -4
STARTPROPERTIES 4
FONT_ASCENT 10
FONT_DESCENT 4
DEFAULT_CHAR 32
COPYRIGHT "Derived from a vfont"
ENDPROPERTIES
CHARS 95
STARTCHAR H20
ENCODING 32
SWIDTH 525 0
DWIDTH 7 0
BBX 7 14 0 -4
BITMAP
00
00
00
00
00
00
00
00
00
00
00
00
00
00
ENDCHAR
STARTCHAR H21
ENCODING 33
SWIDTH 525 0
DWIDTH 7 0
BBX 7 14 0 -4
BITMAP
00
10
10
10
10
10
10
10
00
00
10
00
00
00
ENDCHAR
STARTCHAR H22
ENCODING 34
SWIDTH 525 0
DWIDTH 7 0
BBX 7 14 0 -4
BITMAP
00
48
48
48
48
00
00
00
00
00
00
00
00
00
ENDCHAR
STARTCHAR H23
ENCODING 35
SWIDTH 525 0
DWIDTH 7 0
BBX 7 14 0 -4
BITMAP
00
24
24
24
7e
24
48
fc
48
48
48
00
00
00
ENDCHAR
STARTCHAR H24
ENCODING 36
SWIDTH 525 0
DWIDTH 7 0
BBX 7 14 0 -4
BITMAP
00
10
38
54
50
50
38
14
14
54
38
10
00
00
ENDCHAR
STARTCHAR H25
ENCODING 37
SWIDTH 525 0
DWIDTH 7 0
BBX 7 14 0 -4
BITMAP
00
64
94
98
68
10
10
2c
32
52
4c
00
00
00
ENDCHAR
STARTCHAR H26
ENCODING 38
SWIDTH 525 0
DWIDTH 7 0
BBX 7 14 0 -4
BITMAP
00
30
48
48
30
20
52
8c
88
88
76
00
00
00
ENDCHAR
STARTCHAR H27
ENCODING 39
SWIDTH 525 0
DWIDTH 7 0
BBX 7 14 0 -4
BITMAP
00
08
08
10
20
00
00
00
00
00
00
00
00
00
ENDCHAR
STARTCHAR H28
ENCODING 40
SWIDTH 525 0
DWIDTH 7 0
BBX 7 14 0 -4
BITMAP
00
08
10
10
20
20
20
20
20
10
10
08
00
00
ENDCHAR
STARTCHAR H29
ENCODING 41
SWIDTH 525 0
DWIDTH 7 0
BBX 7 14 0 -4
BITMAP
00
20
10
10
08
08
08
08
08
10
10
20
00
00
ENDCHAR
STARTCHAR H2a
ENCODING 42
SWIDTH 525 0
DWIDTH 7 0
BBX 7 14 0 -4
BITMAP
00
00
10
54
38
38
54
10
00
00
00
00
00
00
ENDCHAR
STARTCHAR H2b
ENCODING 43
SWIDTH 525 0
DWIDTH 7 0
BBX 7 14 0 -4
BITMAP
00
00
00
00
10
10
7c
10
10
00
00
00
00
00
ENDCHAR
STARTCHAR H2c
ENCODING 44
SWIDTH 525 0
DWIDTH 7 0
BBX 7 14 0 -4
BITMAP
00
00
00
00
00
00
00
00
00
18
18
08
30
00
ENDCHAR
STARTCHAR H2d
ENCODING 45
SWIDTH 525 0
DWIDTH 7 0
BBX 7 14 0 -4
BITMAP
00
00
00
00
00
00
7c
00
00
00
00
00
00
00
ENDCHAR
STARTCHAR H2e
ENCODING 46
SWIDTH 525 0
DWIDTH 7 0
BBX 7 14 0 -4
BITMAP
00
00
00
00
00
00
00
00
00
18
18
00
00
00
ENDCHAR
STARTCHAR H2f
ENCODING 47
SWIDTH 525 0
DWIDTH 7 0
BBX 7 14 0 -4
BITMAP
00
04
04
08
08
10
10
20
20
40
40
00
00
00
ENDCHAR
STARTCHAR H30
ENCODING 48
SWIDTH 525 0
DWIDTH 7 0
BBX 7 14 0 -4
BITMAP
00
00
38
44
44
4c
54
64
44
44
38
00
00
00
ENDCHAR
STARTCHAR H31
ENCODING 49
SWIDTH 525 0
DWIDTH 7 0
BBX 7 14 0 -4
BITMAP
00
00
10
30
50
10
10
10
10
10
7c
00
00
00
ENDCHAR
STARTCHAR H32
ENCODING 50
SWIDTH 525 0
DWIDTH 7 0
BBX 7 14 0 -4
BITMAP
00
00
38
44
04
04
08
10
20
40
7c
00
00
00
ENDCHAR
STARTCHAR H33
ENCODING 51
SWIDTH 525 0
DWIDTH 7 0
BBX 7 14 0 -4
BITMAP
00
00
38
44
04
04
18
04
04
44
38
00
00
00
ENDCHAR
STARTCHAR H34
ENCODING 52
SWIDTH 525 0
DWIDTH 7 0
BBX 7 14 0 -4
BITMAP
00
00
04
0c
14
24
44
44
7e
04
04
00
00
00
ENDCHAR
STARTCHAR H35
ENCODING 53
SWIDTH 525 0
DWIDTH 7 0
BBX 7 14 0 -4
BITMAP
00
00
7c
40
40
78
04
04
44
44
38
00
00
00
ENDCHAR
STARTCHAR H36
ENCODING 54
SWIDTH 525 0
DWIDTH 7 0
BBX 7 14 0 -4
BITMAP
00
00
38
44
40
40
78
44
44
44
38
00
00
00
ENDCHAR
STARTCHAR H37
ENCODING 55
SWIDTH 525 0
DWIDTH 7 0
BBX 7 14 0 -4
BITMAP
00
00
7c
44
04
08
08
08
10
10
10
00
00
00
ENDCHAR
STARTCHAR H38
ENCODING 56
SWIDTH 525 0
DWIDTH 7 0
BBX 7 14 0 -4
BITMAP
00
00
38
44
44
44
38
44
44
44
38
00
00
00
ENDCHAR
STARTCHAR H39
ENCODING 57
SWIDTH 525 0
DWIDTH 7 0
BBX 7 14 0 -4
BITMAP
00
00
38
44
44
44
3c
04
04
44
38
00
00
00
ENDCHAR
STARTCHAR H3a
ENCODING 58
SWIDTH 525 0
DWIDTH 7 0
BBX 7 14 0 -4
BITMAP
00
00
00
00
18
18
00
00
00
18
18
00
00
00
ENDCHAR
STARTCHAR H3b
ENCODING 59
SWIDTH 525 0
DWIDTH 7 0
BBX 7 14 0 -4
BITMAP
00
00
00
00
18
18
00
00
00
18
18
08
30
00
ENDCHAR
STARTCHAR H3c
ENCODING 60
SWIDTH 525 0
DWIDTH 7 0
BBX 7 14 0 -4
BITMAP
00
04
08
10
20
40
80
40
20
10
08
04
00
00
ENDCHAR
STARTCHAR H3d
ENCODING 61
SWIDTH 525 0
DWIDTH 7 0
BBX 7 14 0 -4
BITMAP
00
00
00
00
7c
00
00
00
7c
00
00
00
00
00
ENDCHAR
STARTCHAR H3e
ENCODING 62
SWIDTH 525 0
DWIDTH 7 0
BBX 7 14 0 -4
BITMAP
00
80
40
20
10
08
04
08
10
20
40
80
00
00
ENDCHAR
STARTCHAR H3f
ENCODING 63
SWIDTH 525 0
DWIDTH 7 0
BBX 7 14 0 -4
BITMAP
00
38
44
44
04
08
10
10
00
00
10
00
00
00
ENDCHAR
STARTCHAR H40
ENCODING 64
SWIDTH 525 0
DWIDTH 7 0
BBX 7 14 0 -4
BITMAP
00
10
28
44
5c
54
54
5c
40
24
18
00
00
00
ENDCHAR
STARTCHAR H41
ENCODING 65
SWIDTH 525 0
DWIDTH 7 0
BBX 7 14 0 -4
BITMAP
00
00
10
10
28
28
28
44
7c
44
44
00
00
00
ENDCHAR
STARTCHAR H42
ENCODING 66
SWIDTH 525 0
DWIDTH 7 0
BBX 7 14 0 -4
BITMAP
00
00
70
48
48
48
78
44
44
44
78
00
00
00
ENDCHAR
STARTCHAR H43
ENCODING 67
SWIDTH 525 0
DWIDTH 7 0
BBX 7 14 0 -4
BITMAP
00
00
38
44
44
40
40
40
44
44
38
00
00
00
ENDCHAR
STARTCHAR H44
ENCODING 68
SWIDTH 525 0
DWIDTH 7 0
BBX 7 14 0 -4
BITMAP
00
00
70
48
44
44
44
44
44
48
70
00
00
00
ENDCHAR
STARTCHAR H45
ENCODING 69
SWIDTH 525 0
DWIDTH 7 0
BBX 7 14 0 -4
BITMAP
00
00
7c
40
40
40
78
40
40
40
7c
00
00
00
ENDCHAR
STARTCHAR H46
ENCODING 70
SWIDTH 525 0
DWIDTH 7 0
BBX 7 14 0 -4
BITMAP
00
00
7c
40
40
40
78
40
40
40
40
00
00
00
ENDCHAR
STARTCHAR H47
ENCODING 71
SWIDTH 525 0
DWIDTH 7 0
BBX 7 14 0 -4
BITMAP
00
00
38
44
40
40
4c
44
44
4c
34
00
00
00
ENDCHAR
STARTCHAR H48
ENCODING 72
SWIDTH 525 0
DWIDTH 7 0
BBX 7 14 0 -4
BITMAP
00
00
44
44
44
44
7c
44
44
44
44
00
00
00
ENDCHAR
STARTCHAR H49
ENCODING 73
SWIDTH 525 0
DWIDTH 7 0
BBX 7 14 0 -4
BITMAP
00
00
7c
10
10
10
10
10
10
10
7c
00
00
00
ENDCHAR
STARTCHAR H4a
ENCODING 74
SWIDTH 525 0
DWIDTH 7 0
BBX 7 14 0 -4
BITMAP
00
00
3c
08
08
08
08
08
48
48
30
00
00
00
ENDCHAR
STARTCHAR H4b
ENCODING 75
SWIDTH 525 0
DWIDTH 7 0
BBX 7 14 0 -4
BITMAP
00
00
44
48
50
60
50
48
48
44
44
00
00
00
ENDCHAR
STARTCHAR H4c
ENCODING 76
SWIDTH 525 0
DWIDTH 7 0
BBX 7 14 0 -4
BITMAP
00
00
40
40
40
40
40
40
40
40
7c
00
00
00
ENDCHAR
STARTCHAR H4d
ENCODING 77
SWIDTH 525 0
DWIDTH 7 0
BBX 7 14 0 -4
BITMAP
00
00
84
84
cc
cc
b4
b4
84
84
84
00
00
00
ENDCHAR
STARTCHAR H4e
ENCODING 78
SWIDTH 525 0
DWIDTH 7 0
BBX 7 14 0 -4
BITMAP
00
00
44
64
64
54
54
4c
4c
44
44
00
00
00
ENDCHAR
STARTCHAR H4f
ENCODING 79
SWIDTH 525 0
DWIDTH 7 0
BBX 7 14 0 -4
BITMAP
00
00
38
44
44
44
44
44
44
44
38
00
00
00
ENDCHAR
STARTCHAR H50
ENCODING 80
SWIDTH 525 0
DWIDTH 7 0
BBX 7 14 0 -4
BITMAP
00
00
78
44
44
44
78
40
40
40
40
00
00
00
ENDCHAR
STARTCHAR H51
ENCODING 81
SWIDTH 525 0
DWIDTH 7 0
BBX 7 14 0 -4
BITMAP
00
00
38
44
44
44
44
44
44
44
38
10
0c
00
ENDCHAR
STARTCHAR H52
ENCODING 82
SWIDTH 525 0
DWIDTH 7 0
BBX 7 14 0 -4
BITMAP
00
00
78
44
44
44
78
48
44
44
44
00
00
00
ENDCHAR
STARTCHAR H53
ENCODING 83
SWIDTH 525 0
DWIDTH 7 0
BBX 7 14 0 -4
BITMAP
00
00
38
44
40
20
18
04
44
44
38
00
00
00
ENDCHAR
STARTCHAR H54
ENCODING 84
SWIDTH 525 0
DWIDTH 7 0
BBX 7 14 0 -4
BITMAP
00
00
7c
10
10
10
10
10
10
10
10
00
00
00
ENDCHAR
STARTCHAR H55
ENCODING 85
SWIDTH 525 0
DWIDTH 7 0
BBX 7 14 0 -4
BITMAP
00
00
44
44
44
44
44
44
44
44
38
00
00
00
ENDCHAR
STARTCHAR H56
ENCODING 86
SWIDTH 525 0
DWIDTH 7 0
BBX 7 14 0 -4
BITMAP
00
00
44
44
44
28
28
28
10
10
10
00
00
00
ENDCHAR
STARTCHAR H57
ENCODING 87
SWIDTH 525 0
DWIDTH 7 0
BBX 7 14 0 -4
BITMAP
00
00
82
82
82
92
54
54
54
28
28
00
00
00
ENDCHAR
STARTCHAR H58
ENCODING 88
SWIDTH 525 0
DWIDTH 7 0
BBX 7 14 0 -4
BITMAP
00
00
44
44
28
28
10
28
28
44
44
00
00
00
ENDCHAR
STARTCHAR H59
ENCODING 89
SWIDTH 525 0
DWIDTH 7 0
BBX 7 14 0 -4
BITMAP
00
00
44
44
44
28
10
10
10
10
10
00
00
00
ENDCHAR
STARTCHAR H5a
ENCODING 90
SWIDTH 525 0
DWIDTH 7 0
BBX 7 14 0 -4
BITMAP
00
00
7c
04
04
08
10
20
40
40
7c
00
00
00
ENDCHAR
STARTCHAR H5b
ENCODING 91
SWIDTH 525 0
DWIDTH 7 0
BBX 7 14 0 -4
BITMAP
00
3c
20
20
20
20
20
20
20
20
20
3c
00
00
ENDCHAR
STARTCHAR H5c
ENCODING 92
SWIDTH 525 0
DWIDTH 7 0
BBX 7 14 0 -4
BITMAP
00
40
40
20
20
10
10
08
08
04
04
00
00
00
ENDCHAR
STARTCHAR H5d
ENCODING 93
SWIDTH 525 0
DWIDTH 7 0
BBX 7 14 0 -4
BITMAP
00
78
08
08
08
08
08
08
08
08
08
78
00
00
ENDCHAR
STARTCHAR H5e
ENCODING 94
SWIDTH 525 0
DWIDTH 7 0
BBX 7 14 0 -4
BITMAP
00
00
10
38
6c
44
00
00
00
00
00
00
00
00
ENDCHAR
STARTCHAR H5f
ENCODING 95
SWIDTH 525 0
DWIDTH 7 0
BBX 7 14 0 -4
BITMAP
00
00
00
00
00
00
00
00
00
00
00
fc
00
00
ENDCHAR
STARTCHAR H60
ENCODING 96
SWIDTH 525 0
DWIDTH 7 0
BBX 7 14 0 -4
BITMAP
00
20
20
10
08
00
00
00
00
00
00
00
00
00
ENDCHAR
STARTCHAR H61
ENCODING 97
SWIDTH 525 0
DWIDTH 7 0
BBX 7 14 0 -4
BITMAP
00
00
00
00
38
44
04
3c
44
44
3c
00
00
00
ENDCHAR
STARTCHAR H62
ENCODING 98
SWIDTH 525 0
DWIDTH 7 0
BBX 7 14 0 -4
BITMAP
00
00
40
40
58
64
44
44
44
64
58
00
00
00
ENDCHAR
STARTCHAR H63
ENCODING 99
SWIDTH 525 0
DWIDTH 7 0
BBX 7 14 0 -4
BITMAP
00
00
00
00
38
44
40
40
40
44
38
00
00
00
ENDCHAR
STARTCHAR H64
ENCODING 100
SWIDTH 525 0
DWIDTH 7 0
BBX 7 14 0 -4
BITMAP
00
00
04
04
34
4c
44
44
44
4c
34
00
00
00
ENDCHAR
STARTCHAR H65
ENCODING 101
SWIDTH 525 0
DWIDTH 7 0
BBX 7 14 0 -4
BITMAP
00
00
00
00
38
44
44
7c
40
44
38
00
00
00
ENDCHAR
STARTCHAR H66
ENCODING 102
SWIDTH 525 0
DWIDTH 7 0
BBX 7 14 0 -4
BITMAP
00
00
0c
10
10
7c
10
10
10
10
10
00
00
00
ENDCHAR
STARTCHAR H67
ENCODING 103
SWIDTH 525 0
DWIDTH 7 0
BBX 7 14 0 -4
BITMAP
00
00
00
00
34
4c
44
44
44
4c
34
04
44
38
ENDCHAR
STARTCHAR H68
ENCODING 104
SWIDTH 525 0
DWIDTH 7 0
BBX 7 14 0 -4
BITMAP
00
00
40
40
58
64
44
44
44
44
44
00
00
00
ENDCHAR
STARTCHAR H69
ENCODING 105
SWIDTH 525 0
DWIDTH 7 0
BBX 7 14 0 -4
BITMAP
00
00
10
00
70
10
10
10
10
10
10
00
00
00
ENDCHAR
STARTCHAR H6a
ENCODING 106
SWIDTH 525 0
DWIDTH 7 0
BBX 7 14 0 -4
BITMAP
00
00
08
00
38
08
08
08
08
08
08
08
48
30
ENDCHAR
STARTCHAR H6b
ENCODING 107
SWIDTH 525 0
DWIDTH 7 0
BBX 7 14 0 -4
BITMAP
00
00
40
40
48
50
60
60
50
48
44
00
00
00
ENDCHAR
STARTCHAR H6c
ENCODING 108
SWIDTH 525 0
DWIDTH 7 0
BBX 7 14 0 -4
BITMAP
00
00
38
08
08
08
08
08
08
08
08
00
00
00
ENDCHAR
STARTCHAR H6d
ENCODING 109
SWIDTH 525 0
DWIDTH 7 0
BBX 7 14 0 -4
BITMAP
00
00
00
00
68
54
54
54
54
54
54
00
00
00
ENDCHAR
STARTCHAR H6e
ENCODING 110
SWIDTH 525 0
DWIDTH 7 0
BBX 7 14 0 -4
BITMAP
00
00
00
00
58
64
44
44
44
44
44
00
00
00
ENDCHAR
STARTCHAR H6f
ENCODING 111
SWIDTH 525 0
DWIDTH 7 0
BBX 7 14 0 -4
BITMAP
00
00
00
00
38
44
44
44
44
44
38
00
00
00
ENDCHAR
STARTCHAR H70
ENCODING 112
SWIDTH 525 0
DWIDTH 7 0
BBX 7 14 0 -4
BITMAP
00
00
00
00
58
64
44
44
44
64
58
40
40
40
ENDCHAR
STARTCHAR H71
ENCODING 113
SWIDTH 525 0
DWIDTH 7 0
BBX 7 14 0 -4
BITMAP
00
00
00
00
34
4c
44
44
44
4c
34
04
04
04
ENDCHAR
STARTCHAR H72
ENCODING 114
SWIDTH 525 0
DWIDTH 7 0
BBX 7 14 0 -4
BITMAP
00
00
00
00
58
64
40
40
40
40
40
00
00
00
ENDCHAR
STARTCHAR H73
ENCODING 115
SWIDTH 525 0
DWIDTH 7 0
BBX 7 14 0 -4
BITMAP
00
00
00
00
38
44
40
38
04
44
38
00
00
00
ENDCHAR
STARTCHAR H74
ENCODING 116
SWIDTH 525 0
DWIDTH 7 0
BBX 7 14 0 -4
BITMAP
00
00
10
10
7c
10
10
10
10
10
0c
00
00
00
ENDCHAR
STARTCHAR H75
ENCODING 117
SWIDTH 525 0
DWIDTH 7 0
BBX 7 14 0 -4
BITMAP
00
00
00
00
44
44
44
44
44
4c
34
00
00
00
ENDCHAR
STARTCHAR H76
ENCODING 118
SWIDTH 525 0
DWIDTH 7 0
BBX 7 14 0 -4
BITMAP
00
00
00
00
44
44
44
28
28
10
10
00
00
00
ENDCHAR
STARTCHAR H77
ENCODING 119
SWIDTH 525 0
DWIDTH 7 0
BBX 7 14 0 -4
BITMAP
00
00
00
00
44
44
54
54
54
54
28
00
00
00
ENDCHAR
STARTCHAR H78
ENCODING 120
SWIDTH 525 0
DWIDTH 7 0
BBX 7 14 0 -4
BITMAP
00
00
00
00
44
44
28
10
28
44
44
00
00
00
ENDCHAR
STARTCHAR H79
ENCODING 121
SWIDTH 525 0
DWIDTH 7 0
BBX 7 14 0 -4
BITMAP
00
00
00
00
44
44
24
24
14
18
08
08
50
20
ENDCHAR
STARTCHAR H7a
ENCODING 122
SWIDTH 525 0
DWIDTH 7 0
BBX 7 14 0 -4
BITMAP
00
00
00
00
7c
04
08
10
20
40
7c
00
00
00
ENDCHAR
STARTCHAR H7b
ENCODING 123
SWIDTH 525 0
DWIDTH 7 0
BBX 7 14 0 -4
BITMAP
0c
10
10
10
10
10
60
10
10
10
10
10
0c
00
ENDCHAR
STARTCHAR H7c
ENCODING 124
SWIDTH 525 0
DWIDTH 7 0
BBX 7 14 0 -4
BITMAP
10
10
10
10
10
10
00
10
10
10
10
10
10
00
ENDCHAR
STARTCHAR H7d
ENCODING 125
SWIDTH 525 0
DWIDTH 7 0
BBX 7 14 0 -4
BITMAP
60
10
10
10
10
10
0c
10
10
10
10
10
60
00
ENDCHAR
STARTCHAR H7e
ENCODING 126
SWIDTH 525 0
DWIDTH 7 0
BBX 7 14 0 -4
BITMAP
00
00
24
54
48
00
00
00
00
00
00
00
00
00
ENDCHAR
ENDFONT
