STARTFONT 2.1
FONT gallant.r.19
SIZE 19 80 80
FONTBOUNDINGBOX 12 15 0 -5
STARTPROPERTIES 4
FONT_ASCENT 15
FONT_DESCENT 5
DEFAULT_CHAR 32
COPYRIGHT "Derived from a vfont"
ENDPROPERTIES
CHARS 95
STARTCHAR H20
ENCODING 32
SWIDTH 568 0
DWIDTH 12 0
BBX 12 20 0 -5
BITMAP
0000
0000
0000
0000
0000
0000
0000
0000
0000
0000
0000
0000
0000
0000
0000
0000
0000
0000
0000
0000
ENDCHAR
STARTCHAR H21
ENCODING 33
SWIDTH 568 0
DWIDTH 12 0
BBX 12 20 0 -5
BITMAP
0600
0600
0600
0600
0600
0600
0600
0600
0600
0600
0600
0000
0000
0600
0600
0000
0000
0000
0000
0000
ENDCHAR
STARTCHAR H22
ENCODING 34
SWIDTH 568 0
DWIDTH 12 0
BBX 12 20 0 -5
BITMAP
1980
1980
1980
1980
1980
1980
0000
0000
0000
0000
0000
0000
0000
0000
0000
0000
0000
0000
0000
0000
ENDCHAR
STARTCHAR H23
ENCODING 35
SWIDTH 568 0
DWIDTH 12 0
BBX 12 20 0 -5
BITMAP
0330
0330
0330
0660
1ff0
1ff0
0cc0
0cc0
1980
1980
7fc0
7fc0
3300
6600
6600
0000
0000
0000
0000
0000
ENDCHAR
STARTCHAR H24
ENCODING 36
SWIDTH 568 0
DWIDTH 12 0
BBX 12 20 0 -5
BITMAP
0600
1f80
3fc0
66e0
6660
6600
3e00
1f80
07c0
0660
0660
6660
7fc0
3f80
0600
0000
0000
0000
0000
0000
ENDCHAR
STARTCHAR H25
ENCODING 37
SWIDTH 568 0
DWIDTH 12 0
BBX 12 20 0 -5
BITMAP
3860
44c0
44c0
4580
3980
0300
0300
0600
0c00
0c00
19c0
1a20
3220
3220
61c0
0000
0000
0000
0000
0000
ENDCHAR
STARTCHAR H26
ENCODING 38
SWIDTH 568 0
DWIDTH 12 0
BBX 12 20 0 -5
BITMAP
0700
0f80
18c0
18c0
18c0
0f80
1e00
3e00
7700
6360
61e0
61c0
6180
3fe0
1e60
0000
0000
0000
0000
0000
ENDCHAR
STARTCHAR H27
ENCODING 39
SWIDTH 568 0
DWIDTH 12 0
BBX 12 20 0 -5
BITMAP
0c00
1e00
1e00
0600
0600
0c00
1800
1000
0000
0000
0000
0000
0000
0000
0000
0000
0000
0000
0000
0000
ENDCHAR
STARTCHAR H28
ENCODING 40
SWIDTH 568 0
DWIDTH 12 0
BBX 12 20 0 -5
BITMAP
00c0
0180
0380
0300
0700
0600
0600
0600
0600
0600
0700
0300
0380
0180
00c0
0000
0000
0000
0000
0000
ENDCHAR
STARTCHAR H29
ENCODING 41
SWIDTH 568 0
DWIDTH 12 0
BBX 12 20 0 -5
BITMAP
3000
1800
1c00
0c00
0e00
0600
0600
0600
0600
0600
0e00
0c00
1c00
1800
3000
0000
0000
0000
0000
0000
ENDCHAR
STARTCHAR H2a
ENCODING 42
SWIDTH 568 0
DWIDTH 12 0
BBX 12 20 0 -5
BITMAP
0000
0000
0000
0000
0f00
0600
6660
76e0
1980
0000
1980
76e0
6660
0600
0f00
0000
0000
0000
0000
0000
ENDCHAR
STARTCHAR H2b
ENCODING 43
SWIDTH 568 0
DWIDTH 12 0
BBX 12 20 0 -5
BITMAP
0000
0000
0000
0000
0000
0600
0600
0600
0600
7fe0
7fe0
0600
0600
0600
0600
0000
0000
0000
0000
0000
ENDCHAR
STARTCHAR H2c
ENCODING 44
SWIDTH 568 0
DWIDTH 12 0
BBX 12 20 0 -5
BITMAP
0000
0000
0000
0000
0000
0000
0000
0000
0000
0000
0000
0000
0c00
1e00
1e00
0600
0600
0c00
1800
1000
ENDCHAR
STARTCHAR H2d
ENCODING 45
SWIDTH 568 0
DWIDTH 12 0
BBX 12 20 0 -5
BITMAP
0000
0000
0000
0000
0000
0000
0000
0000
0000
7fe0
7fe0
0000
0000
0000
0000
0000
0000
0000
0000
0000
ENDCHAR
STARTCHAR H2e
ENCODING 46
SWIDTH 568 0
DWIDTH 12 0
BBX 12 20 0 -5
BITMAP
0000
0000
0000
0000
0000
0000
0000
0000
0000
0000
0000
0c00
1e00
1e00
0c00
0000
0000
0000
0000
0000
ENDCHAR
STARTCHAR H2f
ENCODING 47
SWIDTH 568 0
DWIDTH 12 0
BBX 12 20 0 -5
BITMAP
0060
00c0
00c0
0180
0180
0300
0300
0600
0c00
0c00
1800
1800
3000
3000
6000
0000
0000
0000
0000
0000
ENDCHAR
STARTCHAR H30
ENCODING 48
SWIDTH 568 0
DWIDTH 12 0
BBX 12 20 0 -5
BITMAP
0700
0f80
1180
10c0
30c0
30c0
30c0
30c0
30c0
30c0
30c0
3080
1880
1f00
0e00
0000
0000
0000
0000
0000
ENDCHAR
STARTCHAR H31
ENCODING 49
SWIDTH 568 0
DWIDTH 12 0
BBX 12 20 0 -5
BITMAP
0200
0600
0e00
1e00
3600
0600
0600
0600
0600
0600
0600
0600
0600
0600
3fc0
0000
0000
0000
0000
0000
ENDCHAR
STARTCHAR H32
ENCODING 50
SWIDTH 568 0
DWIDTH 12 0
BBX 12 20 0 -5
BITMAP
1f00
3f80
61c0
40c0
00c0
00c0
00c0
0180
0300
0600
0c00
1800
3020
7fe0
7fe0
0000
0000
0000
0000
0000
ENDCHAR
STARTCHAR H33
ENCODING 51
SWIDTH 568 0
DWIDTH 12 0
BBX 12 20 0 -5
BITMAP
0f80
1fc0
20e0
4060
0060
00e0
07c0
0fc0
00e0
0060
0060
4060
6040
3f80
1f00
0000
0000
0000
0000
0000
ENDCHAR
STARTCHAR H34
ENCODING 52
SWIDTH 568 0
DWIDTH 12 0
BBX 12 20 0 -5
BITMAP
0180
0380
0380
0580
0580
0980
0980
1180
1180
2180
3fe0
7fe0
0180
0180
0180
0000
0000
0000
0000
0000
ENDCHAR
STARTCHAR H35
ENCODING 53
SWIDTH 568 0
DWIDTH 12 0
BBX 12 20 0 -5
BITMAP
0fc0
0fc0
1000
1000
2000
3f80
31c0
00e0
0060
0060
0060
4060
6060
30c0
1f80
0000
0000
0000
0000
0000
ENDCHAR
STARTCHAR H36
ENCODING 54
SWIDTH 568 0
DWIDTH 12 0
BBX 12 20 0 -5
BITMAP
0700
0c00
1800
3000
3000
6000
6780
6fc0
70e0
6060
6060
6060
7040
3f80
1f00
0000
0000
0000
0000
0000
ENDCHAR
STARTCHAR H37
ENCODING 55
SWIDTH 568 0
DWIDTH 12 0
BBX 12 20 0 -5
BITMAP
1fe0
3fe0
6040
0040
00c0
0080
0080
0180
0100
0100
0300
0200
0200
0600
0400
0000
0000
0000
0000
0000
ENDCHAR
STARTCHAR H38
ENCODING 56
SWIDTH 568 0
DWIDTH 12 0
BBX 12 20 0 -5
BITMAP
0f00
1180
30c0
30c0
30c0
1880
0d00
0600
0b00
1180
30c0
30c0
30c0
1880
0f00
0000
0000
0000
0000
0000
ENDCHAR
STARTCHAR H39
ENCODING 57
SWIDTH 568 0
DWIDTH 12 0
BBX 12 20 0 -5
BITMAP
0f80
11c0
20e0
6060
6060
6060
70e0
3f60
1e60
0060
00c0
00c0
0180
0700
3c00
0000
0000
0000
0000
0000
ENDCHAR
STARTCHAR H3a
ENCODING 58
SWIDTH 568 0
DWIDTH 12 0
BBX 12 20 0 -5
BITMAP
0000
0000
0000
0000
0000
0c00
1e00
1e00
0c00
0000
0000
0c00
1e00
1e00
0c00
0000
0000
0000
0000
0000
ENDCHAR
STARTCHAR H3b
ENCODING 59
SWIDTH 568 0
DWIDTH 12 0
BBX 12 20 0 -5
BITMAP
0000
0000
0000
0000
0000
0000
0c00
1e00
1e00
0c00
0000
0000
0c00
1e00
1e00
0600
0600
0c00
1800
1000
ENDCHAR
STARTCHAR H3c
ENCODING 60
SWIDTH 568 0
DWIDTH 12 0
BBX 12 20 0 -5
BITMAP
0000
0000
0000
0000
0000
0060
01c0
0700
1e00
7800
7800
1e00
0700
01c0
0060
0000
0000
0000
0000
0000
ENDCHAR
STARTCHAR H3d
ENCODING 61
SWIDTH 568 0
DWIDTH 12 0
BBX 12 20 0 -5
BITMAP
0000
0000
0000
0000
0000
0000
0000
7fc0
7fc0
0000
0000
7fc0
7fc0
0000
0000
0000
0000
0000
0000
0000
ENDCHAR
STARTCHAR H3e
ENCODING 62
SWIDTH 568 0
DWIDTH 12 0
BBX 12 20 0 -5
BITMAP
0000
0000
0000
0000
0000
6000
3800
1e00
0780
01e0
01e0
0780
1e00
3800
6000
0000
0000
0000
0000
0000
ENDCHAR
STARTCHAR H3f
ENCODING 63
SWIDTH 568 0
DWIDTH 12 0
BBX 12 20 0 -5
BITMAP
0f00
1f80
39c0
20c0
00c0
00c0
0180
0300
0600
0c00
0c00
0000
0000
0c00
0c00
0000
0000
0000
0000
0000
ENDCHAR
STARTCHAR H40
ENCODING 64
SWIDTH 568 0
DWIDTH 12 0
BBX 12 20 0 -5
BITMAP
0000
0000
0000
0f80
3fc0
3060
6060
6720
6fa0
6ca0
6ca0
67e0
6000
3000
3fe0
0fe0
0000
0000
0000
0000
ENDCHAR
STARTCHAR H41
ENCODING 65
SWIDTH 568 0
DWIDTH 12 0
BBX 12 20 0 -5
BITMAP
0000
0600
0600
0b00
0b00
0900
1180
1180
1080
3fc0
20c0
2040
4060
4060
e0f0
0000
0000
0000
0000
0000
ENDCHAR
STARTCHAR H42
ENCODING 66
SWIDTH 568 0
DWIDTH 12 0
BBX 12 20 0 -5
BITMAP
0000
ff00
6080
60c0
60c0
60c0
6180
7f80
60c0
6060
6060
6060
6060
60c0
ff80
0000
0000
0000
0000
0000
ENDCHAR
STARTCHAR H43
ENCODING 67
SWIDTH 568 0
DWIDTH 12 0
BBX 12 20 0 -5
BITMAP
0000
0fc0
1060
2020
2000
6000
6000
6000
6000
6000
6000
2000
3020
1840
0f80
0000
0000
0000
0000
0000
ENDCHAR
STARTCHAR H44
ENCODING 68
SWIDTH 568 0
DWIDTH 12 0
BBX 12 20 0 -5
BITMAP
0000
ff00
61c0
60c0
6060
6060
6060
6060
6060
6060
6060
6060
6040
6180
fe00
0000
0000
0000
0000
0000
ENDCHAR
STARTCHAR H45
ENCODING 69
SWIDTH 568 0
DWIDTH 12 0
BBX 12 20 0 -5
BITMAP
0000
7fc0
3040
3040
3000
3000
3080
3f80
3080
3000
3000
3000
3020
3020
7fe0
0000
0000
0000
0000
0000
ENDCHAR
STARTCHAR H46
ENCODING 70
SWIDTH 568 0
DWIDTH 12 0
BBX 12 20 0 -5
BITMAP
0000
7fc0
3040
3040
3000
3000
3080
3f80
3080
3000
3000
3000
3000
3000
7800
0000
0000
0000
0000
0000
ENDCHAR
STARTCHAR H47
ENCODING 71
SWIDTH 568 0
DWIDTH 12 0
BBX 12 20 0 -5
BITMAP
0000
0fc0
1060
2020
2000
6000
6000
6000
6000
61f0
6060
2060
3060
1860
0f80
0000
0000
0000
0000
0000
ENDCHAR
STARTCHAR H48
ENCODING 72
SWIDTH 568 0
DWIDTH 12 0
BBX 12 20 0 -5
BITMAP
0000
f0f0
6060
6060
6060
6060
6060
7fe0
6060
6060
6060
6060
6060
6060
f0f0
0000
0000
0000
0000
0000
ENDCHAR
STARTCHAR H49
ENCODING 73
SWIDTH 568 0
DWIDTH 12 0
BBX 12 20 0 -5
BITMAP
0000
1f80
0600
0600
0600
0600
0600
0600
0600
0600
0600
0600
0600
0600
1f80
0000
0000
0000
0000
0000
ENDCHAR
STARTCHAR H4a
ENCODING 74
SWIDTH 568 0
DWIDTH 12 0
BBX 12 20 0 -5
BITMAP
0000
1f80
0600
0600
0600
0600
0600
0600
0600
0600
0600
0600
0600
0600
0600
0600
0600
0400
3800
3000
ENDCHAR
STARTCHAR H4b
ENCODING 75
SWIDTH 568 0
DWIDTH 12 0
BBX 12 20 0 -5
BITMAP
0000
f0e0
6180
6300
6600
6c00
7800
7800
7c00
6e00
6700
6380
61c0
60e0
f070
0000
0000
0000
0000
0000
ENDCHAR
STARTCHAR H4c
ENCODING 76
SWIDTH 568 0
DWIDTH 12 0
BBX 12 20 0 -5
BITMAP
0000
7800
3000
3000
3000
3000
3000
3000
3000
3000
3000
3000
3020
3020
7fe0
0000
0000
0000
0000
0000
ENDCHAR
STARTCHAR H4d
ENCODING 77
SWIDTH 568 0
DWIDTH 12 0
BBX 12 20 0 -5
BITMAP
0000
e070
60e0
70e0
70e0
70e0
5960
5960
5960
4d60
4e60
4e60
4460
4460
e4f0
0000
0000
0000
0000
0000
ENDCHAR
STARTCHAR H4e
ENCODING 78
SWIDTH 568 0
DWIDTH 12 0
BBX 12 20 0 -5
BITMAP
0000
c070
6020
7020
7820
5820
4c20
4620
4720
4320
41a0
40e0
40e0
4060
e030
0000
0000
0000
0000
0000
ENDCHAR
STARTCHAR H4f
ENCODING 79
SWIDTH 568 0
DWIDTH 12 0
BBX 12 20 0 -5
BITMAP
0000
0f00
11c0
20c0
2060
6060
6060
6060
6060
6060
6060
2040
3040
1880
0f00
0000
0000
0000
0000
0000
ENDCHAR
STARTCHAR H50
ENCODING 80
SWIDTH 568 0
DWIDTH 12 0
BBX 12 20 0 -5
BITMAP
0000
7f80
30c0
3060
3060
3060
30c0
3780
3000
3000
3000
3000
3000
3000
7800
0000
0000
0000
0000
0000
ENDCHAR
STARTCHAR H51
ENCODING 81
SWIDTH 568 0
DWIDTH 12 0
BBX 12 20 0 -5
BITMAP
0000
0f00
11c0
20c0
2060
6060
6060
6060
6060
6060
6060
3040
3840
1f80
0e00
1f00
2390
01e0
0000
0000
ENDCHAR
STARTCHAR H52
ENCODING 82
SWIDTH 568 0
DWIDTH 12 0
BBX 12 20 0 -5
BITMAP
0000
ff00
6180
60c0
60c0
60c0
6080
7f00
7c00
6e00
6700
6380
61c0
60e0
f070
0000
0000
0000
0000
0000
ENDCHAR
STARTCHAR H53
ENCODING 83
SWIDTH 568 0
DWIDTH 12 0
BBX 12 20 0 -5
BITMAP
0000
1fe0
3060
6020
6020
7000
3c00
1e00
0780
01c0
00e0
4060
4060
60c0
7f80
0000
0000
0000
0000
0000
ENDCHAR
STARTCHAR H54
ENCODING 84
SWIDTH 568 0
DWIDTH 12 0
BBX 12 20 0 -5
BITMAP
0000
7fe0
4620
0600
0600
0600
0600
0600
0600
0600
0600
0600
0600
0600
1f80
0000
0000
0000
0000
0000
ENDCHAR
STARTCHAR H55
ENCODING 85
SWIDTH 568 0
DWIDTH 12 0
BBX 12 20 0 -5
BITMAP
0000
f070
6020
6020
6020
6020
6020
6020
6020
6020
6020
6020
7040
3fc0
1f80
0000
0000
0000
0000
0000
ENDCHAR
STARTCHAR H56
ENCODING 86
SWIDTH 568 0
DWIDTH 12 0
BBX 12 20 0 -5
BITMAP
0000
e0e0
6040
3080
3080
3080
1900
1900
1900
0c00
0e00
0e00
0400
0400
0400
0000
0000
0000
0000
0000
ENDCHAR
STARTCHAR H57
ENCODING 87
SWIDTH 568 0
DWIDTH 12 0
BBX 12 20 0 -5
BITMAP
0000
fef0
6620
6620
6620
7620
7740
3340
3740
3bc0
3b80
1980
1980
1980
1980
0000
0000
0000
0000
0000
ENDCHAR
STARTCHAR H58
ENCODING 88
SWIDTH 568 0
DWIDTH 12 0
BBX 12 20 0 -5
BITMAP
0000
f070
6020
3040
3880
1880
0d00
0600
0600
0b00
1180
11c0
20c0
4060
e0f0
0000
0000
0000
0000
0000
ENDCHAR
STARTCHAR H59
ENCODING 89
SWIDTH 568 0
DWIDTH 12 0
BBX 12 20 0 -5
BITMAP
0000
f070
6020
3040
1880
1880
0d00
0600
0600
0600
0600
0600
0600
0600
0f00
0000
0000
0000
0000
0000
ENDCHAR
STARTCHAR H5a
ENCODING 90
SWIDTH 568 0
DWIDTH 12 0
BBX 12 20 0 -5
BITMAP
0000
3fe0
20c0
00c0
0180
0180
0300
0300
0600
0600
0c00
0c00
1800
1820
3fe0
0000
0000
0000
0000
0000
ENDCHAR
STARTCHAR H5b
ENCODING 91
SWIDTH 568 0
DWIDTH 12 0
BBX 12 20 0 -5
BITMAP
07c0
07c0
0600
0600
0600
0600
0600
0600
0600
0600
0600
0600
0600
07c0
07c0
0000
0000
0000
0000
0000
ENDCHAR
STARTCHAR H5c
ENCODING 92
SWIDTH 568 0
DWIDTH 12 0
BBX 12 20 0 -5
BITMAP
6000
6000
3000
3000
1800
1800
0c00
0c00
0600
0300
0300
0180
0180
00c0
00c0
0000
0000
0000
0000
0000
ENDCHAR
STARTCHAR H5d
ENCODING 93
SWIDTH 568 0
DWIDTH 12 0
BBX 12 20 0 -5
BITMAP
7c00
7c00
0c00
0c00
0c00
0c00
0c00
0c00
0c00
0c00
0c00
0c00
0c00
7c00
7c00
0000
0000
0000
0000
0000
ENDCHAR
STARTCHAR H5e
ENCODING 94
SWIDTH 568 0
DWIDTH 12 0
BBX 12 20 0 -5
BITMAP
0400
0e00
1b00
3180
60c0
0000
0000
0000
0000
0000
0000
0000
0000
0000
0000
0000
0000
0000
0000
0000
ENDCHAR
STARTCHAR H5f
ENCODING 95
SWIDTH 568 0
DWIDTH 12 0
BBX 12 20 0 -5
BITMAP
0000
0000
0000
0000
0000
0000
0000
0000
0000
0000
0000
0000
0000
0000
0000
0000
fff0
fff0
0000
0000
ENDCHAR
STARTCHAR H60
ENCODING 96
SWIDTH 568 0
DWIDTH 12 0
BBX 12 20 0 -5
BITMAP
0100
0300
0600
0600
0780
0780
0300
0000
0000
0000
0000
0000
0000
0000
0000
0000
0000
0000
0000
0000
ENDCHAR
STARTCHAR H61
ENCODING 97
SWIDTH 568 0
DWIDTH 12 0
BBX 12 20 0 -5
BITMAP
0000
0000
0000
0000
0000
0f80
18c0
10c0
03c0
1cc0
30c0
30c0
30c0
39c0
1ee0
0000
0000
0000
0000
0000
ENDCHAR
STARTCHAR H62
ENCODING 98
SWIDTH 568 0
DWIDTH 12 0
BBX 12 20 0 -5
BITMAP
2000
6000
e000
6000
6000
6780
6fc0
70e0
6060
6060
6060
6060
7060
78c0
4f80
0000
0000
0000
0000
0000
ENDCHAR
STARTCHAR H63
ENCODING 99
SWIDTH 568 0
DWIDTH 12 0
BBX 12 20 0 -5
BITMAP
0000
0000
0000
0000
0000
1f80
31c0
20c0
6000
6000
6000
6000
7040
30c0
1f80
0000
0000
0000
0000
0000
ENDCHAR
STARTCHAR H64
ENCODING 100
SWIDTH 568 0
DWIDTH 12 0
BBX 12 20 0 -5
BITMAP
0060
00e0
0060
0060
0060
0f60
31e0
20e0
6060
6060
6060
6060
70e0
3960
1e70
0000
0000
0000
0000
0000
ENDCHAR
STARTCHAR H65
ENCODING 101
SWIDTH 568 0
DWIDTH 12 0
BBX 12 20 0 -5
BITMAP
0000
0000
0000
0000
0000
0f00
30c0
6060
6060
7fe0
6000
6000
3000
1860
0f80
0000
0000
0000
0000
0000
ENDCHAR
STARTCHAR H66
ENCODING 102
SWIDTH 568 0
DWIDTH 12 0
BBX 12 20 0 -5
BITMAP
0380
04c0
04c0
0c00
0c00
0c00
0c00
1f80
0c00
0c00
0c00
0c00
0c00
0c00
1e00
0000
0000
0000
0000
0000
ENDCHAR
STARTCHAR H67
ENCODING 103
SWIDTH 568 0
DWIDTH 12 0
BBX 12 20 0 -5
BITMAP
0000
0000
0000
0000
0000
1f20
31e0
60c0
60c0
60c0
3180
3f00
6000
7fc0
3fe0
2060
4020
4020
7fc0
3f80
ENDCHAR
STARTCHAR H68
ENCODING 104
SWIDTH 568 0
DWIDTH 12 0
BBX 12 20 0 -5
BITMAP
1000
3000
7000
3000
3000
3780
39c0
30c0
30c0
30c0
30c0
30c0
30c0
30c0
79e0
0000
0000
0000
0000
0000
ENDCHAR
STARTCHAR H69
ENCODING 105
SWIDTH 568 0
DWIDTH 12 0
BBX 12 20 0 -5
BITMAP
0000
0600
0600
0000
0000
1e00
0600
0600
0600
0600
0600
0600
0600
0600
1f80
0000
0000
0000
0000
0000
ENDCHAR
STARTCHAR H6a
ENCODING 106
SWIDTH 568 0
DWIDTH 12 0
BBX 12 20 0 -5
BITMAP
0000
00c0
00c0
0000
0000
03c0
00c0
00c0
00c0
00c0
00c0
00c0
00c0
00c0
00c0
20c0
30c0
3880
1f00
0e00
ENDCHAR
STARTCHAR H6b
ENCODING 107
SWIDTH 568 0
DWIDTH 12 0
BBX 12 20 0 -5
BITMAP
6000
e000
6000
6000
6000
61c0
6300
6600
7c00
7800
7c00
6e00
6700
6380
f1e0
0000
0000
0000
0000
0000
ENDCHAR
STARTCHAR H6c
ENCODING 108
SWIDTH 568 0
DWIDTH 12 0
BBX 12 20 0 -5
BITMAP
1e00
0600
0600
0600
0600
0600
0600
0600
0600
0600
0600
0600
0600
0600
1f80
0000
0000
0000
0000
0000
ENDCHAR
STARTCHAR H6d
ENCODING 109
SWIDTH 568 0
DWIDTH 12 0
BBX 12 20 0 -5
BITMAP
0000
0000
0000
0000
0000
ddc0
6ee0
6660
6660
6660
6660
6660
6660
6660
ef70
0000
0000
0000
0000
0000
ENDCHAR
STARTCHAR H6e
ENCODING 110
SWIDTH 568 0
DWIDTH 12 0
BBX 12 20 0 -5
BITMAP
0000
0000
0000
0000
0000
2780
79c0
30c0
30c0
30c0
30c0
30c0
30c0
30c0
79e0
0000
0000
0000
0000
0000
ENDCHAR
STARTCHAR H6f
ENCODING 111
SWIDTH 568 0
DWIDTH 12 0
BBX 12 20 0 -5
BITMAP
0000
0000
0000
0000
0000
0f80
11c0
20e0
6060
6060
6060
6060
7040
3880
1f00
0000
0000
0000
0000
0000
ENDCHAR
STARTCHAR H70
ENCODING 112
SWIDTH 568 0
DWIDTH 12 0
BBX 12 20 0 -5
BITMAP
0000
0000
0000
0000
0000
ef80
71c0
60e0
6060
6060
6060
6060
6040
7080
7f00
6000
6000
6000
6000
f000
ENDCHAR
STARTCHAR H71
ENCODING 113
SWIDTH 568 0
DWIDTH 12 0
BBX 12 20 0 -5
BITMAP
0000
0000
0000
0000
0000
0f20
11e0
20e0
6060
6060
6060
6060
7060
38e0
1fe0
0060
0060
0060
0060
00f0
ENDCHAR
STARTCHAR H72
ENCODING 114
SWIDTH 568 0
DWIDTH 12 0
BBX 12 20 0 -5
BITMAP
0000
0000
0000
0000
0000
7380
34c0
38c0
3000
3000
3000
3000
3000
3000
7800
0000
0000
0000
0000
0000
ENDCHAR
STARTCHAR H73
ENCODING 115
SWIDTH 568 0
DWIDTH 12 0
BBX 12 20 0 -5
BITMAP
0000
0000
0000
0000
0000
1fc0
30c0
3040
3800
1e00
0780
01c0
20c0
30c0
3f80
0000
0000
0000
0000
0000
ENDCHAR
STARTCHAR H74
ENCODING 116
SWIDTH 568 0
DWIDTH 12 0
BBX 12 20 0 -5
BITMAP
0000
0000
0400
0400
0c00
7fc0
0c00
0c00
0c00
0c00
0c00
0c00
0c20
0e40
0780
0000
0000
0000
0000
0000
ENDCHAR
STARTCHAR H75
ENCODING 117
SWIDTH 568 0
DWIDTH 12 0
BBX 12 20 0 -5
BITMAP
0000
0000
0000
0000
0000
79e0
30c0
30c0
30c0
30c0
30c0
30c0
30c0
39c0
1e60
0000
0000
0000
0000
0000
ENDCHAR
STARTCHAR H76
ENCODING 118
SWIDTH 568 0
DWIDTH 12 0
BBX 12 20 0 -5
BITMAP
0000
0000
0000
0000
0000
f070
6020
3040
3040
1880
1880
0d00
0d00
0600
0600
0000
0000
0000
0000
0000
ENDCHAR
STARTCHAR H77
ENCODING 119
SWIDTH 568 0
DWIDTH 12 0
BBX 12 20 0 -5
BITMAP
0000
0000
0000
0000
0000
ff70
6620
6620
6620
3740
3b40
3b40
1980
1980
1980
0000
0000
0000
0000
0000
ENDCHAR
STARTCHAR H78
ENCODING 120
SWIDTH 568 0
DWIDTH 12 0
BBX 12 20 0 -5
BITMAP
0000
0000
0000
0000
0000
f8f0
7040
3880
1d00
0e00
0700
0b80
11c0
20e0
f1f0
0000
0000
0000
0000
0000
ENDCHAR
STARTCHAR H79
ENCODING 121
SWIDTH 568 0
DWIDTH 12 0
BBX 12 20 0 -5
BITMAP
0000
0000
0000
0000
0000
f0f0
6020
3040
3040
1880
1880
0d00
0d00
0600
0600
0400
0c00
0800
7800
7000
ENDCHAR
STARTCHAR H7a
ENCODING 122
SWIDTH 568 0
DWIDTH 12 0
BBX 12 20 0 -5
BITMAP
0000
0000
0000
0000
0000
7fe0
60e0
41c0
0380
0700
0e00
1c00
3820
7060
7fe0
0000
0000
0000
0000
0000
ENDCHAR
STARTCHAR H7b
ENCODING 123
SWIDTH 568 0
DWIDTH 12 0
BBX 12 20 0 -5
BITMAP
01c0
0300
0300
0180
0180
0180
0300
0700
0300
0180
0180
0180
0300
0300
01c0
0000
0000
0000
0000
0000
ENDCHAR
STARTCHAR H7c
ENCODING 124
SWIDTH 568 0
DWIDTH 12 0
BBX 12 20 0 -5
BITMAP
0600
0600
0600
0600
0600
0600
0600
0600
0600
0600
0600
0600
0600
0600
0600
0600
0600
0600
0600
0600
ENDCHAR
STARTCHAR H7d
ENCODING 125
SWIDTH 568 0
DWIDTH 12 0
BBX 12 20 0 -5
BITMAP
3800
0c00
0c00
1800
1800
1800
0c00
0e00
0c00
1800
1800
1800
0c00
0c00
3800
0000
0000
0000
0000
0000
ENDCHAR
STARTCHAR H7e
ENCODING 126
SWIDTH 568 0
DWIDTH 12 0
BBX 12 20 0 -5
BITMAP
0000
0000
0000
0000
0000
0000
0000
0000
1c20
3e60
36c0
67c0
4380
0000
0000
0000
0000
0000
0000
0000
ENDCHAR
ENDFONT
